<?xml version="1.0" encoding="UTF-8"?>
<svg xmlns="http://www.w3.org/2000/svg" width="1560" height="1038" viewBox="0 0 1560 1038">
  <rect width="1560" height="1038" fill="#ffffff"/>
  
<defs>
  <marker id="arrowOpen" markerWidth="10" markerHeight="7"
          refX="9" refY="3.5" orient="auto">
    <polyline points="0,0 9,3.5 0,7" fill="none" stroke="#777" stroke-width="1.2"/>
  </marker>
  <marker id="arrowBlock" markerWidth="10" markerHeight="8"
          refX="9" refY="4" orient="auto">
    <polygon points="0,0 10,4 0,8" fill="none" stroke="#555" stroke-width="1.2"/>
  </marker>
</defs>
  
<text x="780" y="30" text-anchor="middle" font-size="17" font-weight="bold"
      font-family="Arial,sans-serif" fill="#1a202c">
  Roaming &amp; Interconnect Management System — Use Case Diagram
</text>
  <!-- packages + use cases -->
  <rect x="200" y="50" width="374" height="256" rx="7" fill="#f8f9fa" stroke="#8896ab" stroke-width="1.5"/>
<rect x="200" y="50" width="374" height="28" rx="7" fill="#8896ab" opacity="0.18"/>
<rect x="200" y="74" width="374" height="4" fill="#8896ab" opacity="0.18"/>
<text x="387" y="69" text-anchor="middle" font-size="11.5" font-weight="700"
      font-family="Arial,sans-serif" fill="#2d3748">Authentication &amp; Account</text>
  <ellipse cx="300" cy="126" rx="78" ry="26"
         fill="#fffdf0" stroke="#d4a800" stroke-width="1.5"/>
<text x="300" y="126" text-anchor="middle" dominant-baseline="middle"
      font-size="10" font-family="Arial,sans-serif" fill="#2d3748"><tspan x="300" dy="0">Login (Local)</tspan></text>
  <ellipse cx="474" cy="126" rx="78" ry="26"
         fill="#fffdf0" stroke="#d4a800" stroke-width="1.5"/>
<text x="474" y="119.5" text-anchor="middle" dominant-baseline="middle"
      font-size="10" font-family="Arial,sans-serif" fill="#2d3748"><tspan x="474" dy="0">Login via Microsoft</tspan><tspan x="474" dy="13">SSO</tspan></text>
  <ellipse cx="300" cy="192" rx="78" ry="26"
         fill="#fffdf0" stroke="#d4a800" stroke-width="1.5"/>
<text x="300" y="185.5" text-anchor="middle" dominant-baseline="middle"
      font-size="10" font-family="Arial,sans-serif" fill="#2d3748"><tspan x="300" dy="0">Two-Factor</tspan><tspan x="300" dy="13">Authentication (2FA)</tspan></text>
  <ellipse cx="474" cy="192" rx="78" ry="26"
         fill="#fffdf0" stroke="#d4a800" stroke-width="1.5"/>
<text x="474" y="185.5" text-anchor="middle" dominant-baseline="middle"
      font-size="10" font-family="Arial,sans-serif" fill="#2d3748"><tspan x="474" dy="0">Forgot / Reset</tspan><tspan x="474" dy="13">Password</tspan></text>
  <ellipse cx="300" cy="258" rx="78" ry="26"
         fill="#fffdf0" stroke="#d4a800" stroke-width="1.5"/>
<text x="300" y="251.5" text-anchor="middle" dominant-baseline="middle"
      font-size="10" font-family="Arial,sans-serif" fill="#2d3748"><tspan x="300" dy="0">Manage Profile &amp;</tspan><tspan x="300" dy="13">Password</tspan></text>
  <ellipse cx="474" cy="258" rx="78" ry="26"
         fill="#fffdf0" stroke="#d4a800" stroke-width="1.5"/>
<text x="474" y="258" text-anchor="middle" dominant-baseline="middle"
      font-size="10" font-family="Arial,sans-serif" fill="#2d3748"><tspan x="474" dy="0">Register Account</tspan></text>
  <rect x="200" y="342" width="374" height="190" rx="7" fill="#f8f9fa" stroke="#8896ab" stroke-width="1.5"/>
<rect x="200" y="342" width="374" height="28" rx="7" fill="#8896ab" opacity="0.18"/>
<rect x="200" y="366" width="374" height="4" fill="#8896ab" opacity="0.18"/>
<text x="387" y="361" text-anchor="middle" font-size="11.5" font-weight="700"
      font-family="Arial,sans-serif" fill="#2d3748">File &amp; Data Explorer</text>
  <ellipse cx="300" cy="418" rx="78" ry="26"
         fill="#fffdf0" stroke="#d4a800" stroke-width="1.5"/>
<text x="300" y="418" text-anchor="middle" dominant-baseline="middle"
      font-size="10" font-family="Arial,sans-serif" fill="#2d3748"><tspan x="300" dy="0">Browse &amp; Preview Files</tspan></text>
  <ellipse cx="474" cy="418" rx="78" ry="26"
         fill="#fffdf0" stroke="#d4a800" stroke-width="1.5"/>
<text x="474" y="418" text-anchor="middle" dominant-baseline="middle"
      font-size="10" font-family="Arial,sans-serif" fill="#2d3748"><tspan x="474" dy="0">View File Details</tspan></text>
  <ellipse cx="300" cy="484" rx="78" ry="26"
         fill="#fffdf0" stroke="#d4a800" stroke-width="1.5"/>
<text x="300" y="477.5" text-anchor="middle" dominant-baseline="middle"
      font-size="10" font-family="Arial,sans-serif" fill="#2d3748"><tspan x="300" dy="0">Export Data</tspan><tspan x="300" dy="13">(CSV/Excel/PDF/JSON/XML)</tspan></text>
  <rect x="200" y="568" width="374" height="322" rx="7" fill="#f8f9fa" stroke="#8896ab" stroke-width="1.5"/>
<rect x="200" y="568" width="374" height="28" rx="7" fill="#8896ab" opacity="0.18"/>
<rect x="200" y="592" width="374" height="4" fill="#8896ab" opacity="0.18"/>
<text x="387" y="587" text-anchor="middle" font-size="11.5" font-weight="700"
      font-family="Arial,sans-serif" fill="#2d3748">Analytics &amp; Insights</text>
  <ellipse cx="300" cy="644" rx="78" ry="26"
         fill="#fffdf0" stroke="#d4a800" stroke-width="1.5"/>
<text x="300" y="637.5" text-anchor="middle" dominant-baseline="middle"
      font-size="10" font-family="Arial,sans-serif" fill="#2d3748"><tspan x="300" dy="0">View Dashboard</tspan><tspan x="300" dy="13">Analytics</tspan></text>
  <ellipse cx="474" cy="644" rx="78" ry="26"
         fill="#fffdf0" stroke="#d4a800" stroke-width="1.5"/>
<text x="474" y="644" text-anchor="middle" dominant-baseline="middle"
      font-size="10" font-family="Arial,sans-serif" fill="#2d3748"><tspan x="474" dy="0">Analyze Data Quality</tspan></text>
  <ellipse cx="300" cy="710" rx="78" ry="26"
         fill="#fffdf0" stroke="#d4a800" stroke-width="1.5"/>
<text x="300" y="710" text-anchor="middle" dominant-baseline="middle"
      font-size="10" font-family="Arial,sans-serif" fill="#2d3748"><tspan x="300" dy="0">View Impact Analysis</tspan></text>
  <ellipse cx="474" cy="710" rx="78" ry="26"
         fill="#fffdf0" stroke="#d4a800" stroke-width="1.5"/>
<text x="474" y="710" text-anchor="middle" dominant-baseline="middle"
      font-size="10" font-family="Arial,sans-serif" fill="#2d3748"><tspan x="474" dy="0">View Partner Scorecard</tspan></text>
  <ellipse cx="300" cy="776" rx="78" ry="26"
         fill="#fffdf0" stroke="#d4a800" stroke-width="1.5"/>
<text x="300" y="776" text-anchor="middle" dominant-baseline="middle"
      font-size="10" font-family="Arial,sans-serif" fill="#2d3748"><tspan x="300" dy="0">Investigate Complaints</tspan></text>
  <ellipse cx="474" cy="776" rx="78" ry="26"
         fill="#fffdf0" stroke="#d4a800" stroke-width="1.5"/>
<text x="474" y="776" text-anchor="middle" dominant-baseline="middle"
      font-size="10" font-family="Arial,sans-serif" fill="#2d3748"><tspan x="474" dy="0">View Advanced Insights</tspan></text>
  <ellipse cx="300" cy="842" rx="78" ry="26"
         fill="#fffdf0" stroke="#d4a800" stroke-width="1.5"/>
<text x="300" y="835.5" text-anchor="middle" dominant-baseline="middle"
      font-size="10" font-family="Arial,sans-serif" fill="#2d3748"><tspan x="300" dy="0">Generate AI-Assisted</tspan><tspan x="300" dy="13">Charts</tspan></text>
  <rect x="618" y="50" width="200" height="124" rx="7" fill="#f8f9fa" stroke="#8896ab" stroke-width="1.5"/>
<rect x="618" y="50" width="200" height="28" rx="7" fill="#8896ab" opacity="0.18"/>
<rect x="618" y="74" width="200" height="4" fill="#8896ab" opacity="0.18"/>
<text x="718" y="69" text-anchor="middle" font-size="11.5" font-weight="700"
      font-family="Arial,sans-serif" fill="#2d3748">Project Management</text>
  <ellipse cx="718" cy="126" rx="78" ry="26"
         fill="#fffdf0" stroke="#d4a800" stroke-width="1.5"/>
<text x="718" y="119.5" text-anchor="middle" dominant-baseline="middle"
      font-size="10" font-family="Arial,sans-serif" fill="#2d3748"><tspan x="718" dy="0">Create / Manage</tspan><tspan x="718" dy="13">Projects</tspan></text>
  <rect x="618" y="210" width="374" height="190" rx="7" fill="#f8f9fa" stroke="#8896ab" stroke-width="1.5"/>
<rect x="618" y="210" width="374" height="28" rx="7" fill="#8896ab" opacity="0.18"/>
<rect x="618" y="234" width="374" height="4" fill="#8896ab" opacity="0.18"/>
<text x="805" y="229" text-anchor="middle" font-size="11.5" font-weight="700"
      font-family="Arial,sans-serif" fill="#2d3748">Data Ingestion</text>
  <ellipse cx="718" cy="286" rx="78" ry="26"
         fill="#fffdf0" stroke="#d4a800" stroke-width="1.5"/>
<text x="718" y="279.5" text-anchor="middle" dominant-baseline="middle"
      font-size="10" font-family="Arial,sans-serif" fill="#2d3748"><tspan x="718" dy="0">Upload Files (CSV /</tspan><tspan x="718" dy="13">XLSX)</tspan></text>
  <ellipse cx="892" cy="286" rx="78" ry="26"
         fill="#fffdf0" stroke="#d4a800" stroke-width="1.5"/>
<text x="892" y="279.5" text-anchor="middle" dominant-baseline="middle"
      font-size="10" font-family="Arial,sans-serif" fill="#2d3748"><tspan x="892" dy="0">Configure Ingestion</tspan><tspan x="892" dy="13">Sources</tspan></text>
  <ellipse cx="718" cy="352" rx="78" ry="26"
         fill="#fffdf0" stroke="#d4a800" stroke-width="1.5"/>
<text x="718" y="345.5" text-anchor="middle" dominant-baseline="middle"
      font-size="10" font-family="Arial,sans-serif" fill="#2d3748"><tspan x="718" dy="0">Monitor Ingestion</tspan><tspan x="718" dy="13">History</tspan></text>
  <ellipse cx="892" cy="352" rx="78" ry="26"
         fill="#fffdf0" stroke="#d4a800" stroke-width="1.5"/>
<text x="892" y="345.5" text-anchor="middle" dominant-baseline="middle"
      font-size="10" font-family="Arial,sans-serif" fill="#2d3748"><tspan x="892" dy="0">Sync Files via Folder</tspan><tspan x="892" dy="13">Agent</tspan></text>
  <rect x="618" y="436" width="374" height="190" rx="7" fill="#f8f9fa" stroke="#8896ab" stroke-width="1.5"/>
<rect x="618" y="436" width="374" height="28" rx="7" fill="#8896ab" opacity="0.18"/>
<rect x="618" y="460" width="374" height="4" fill="#8896ab" opacity="0.18"/>
<text x="805" y="455" text-anchor="middle" font-size="11.5" font-weight="700"
      font-family="Arial,sans-serif" fill="#2d3748">Operations Monitoring</text>
  <ellipse cx="718" cy="512" rx="78" ry="26"
         fill="#fffdf0" stroke="#d4a800" stroke-width="1.5"/>
<text x="718" y="505.5" text-anchor="middle" dominant-baseline="middle"
      font-size="10" font-family="Arial,sans-serif" fill="#2d3748"><tspan x="718" dy="0">View Operations Center</tspan><tspan x="718" dy="13">(Control Tower)</tspan></text>
  <ellipse cx="892" cy="512" rx="78" ry="26"
         fill="#fffdf0" stroke="#d4a800" stroke-width="1.5"/>
<text x="892" y="505.5" text-anchor="middle" dominant-baseline="middle"
      font-size="10" font-family="Arial,sans-serif" fill="#2d3748"><tspan x="892" dy="0">View Operations</tspan><tspan x="892" dy="13">Snapshot</tspan></text>
  <ellipse cx="718" cy="578" rx="78" ry="26"
         fill="#fffdf0" stroke="#d4a800" stroke-width="1.5"/>
<text x="718" y="578" text-anchor="middle" dominant-baseline="middle"
      font-size="10" font-family="Arial,sans-serif" fill="#2d3748"><tspan x="718" dy="0">Manage Alerts</tspan></text>
  <rect x="618" y="662" width="374" height="256" rx="7" fill="#f8f9fa" stroke="#8896ab" stroke-width="1.5"/>
<rect x="618" y="662" width="374" height="28" rx="7" fill="#8896ab" opacity="0.18"/>
<rect x="618" y="686" width="374" height="4" fill="#8896ab" opacity="0.18"/>
<text x="805" y="681" text-anchor="middle" font-size="11.5" font-weight="700"
      font-family="Arial,sans-serif" fill="#2d3748">Reporting &amp; Delivery</text>
  <ellipse cx="718" cy="738" rx="78" ry="26"
         fill="#fffdf0" stroke="#d4a800" stroke-width="1.5"/>
<text x="718" y="731.5" text-anchor="middle" dominant-baseline="middle"
      font-size="10" font-family="Arial,sans-serif" fill="#2d3748"><tspan x="718" dy="0">Create / Manage Report</tspan><tspan x="718" dy="13">Templates</tspan></text>
  <ellipse cx="892" cy="738" rx="78" ry="26"
         fill="#fffdf0" stroke="#d4a800" stroke-width="1.5"/>
<text x="892" y="731.5" text-anchor="middle" dominant-baseline="middle"
      font-size="10" font-family="Arial,sans-serif" fill="#2d3748"><tspan x="892" dy="0">Build Reports (Slide</tspan><tspan x="892" dy="13">Builder)</tspan></text>
  <ellipse cx="718" cy="804" rx="78" ry="26"
         fill="#fffdf0" stroke="#d4a800" stroke-width="1.5"/>
<text x="718" y="804" text-anchor="middle" dominant-baseline="middle"
      font-size="10" font-family="Arial,sans-serif" fill="#2d3748"><tspan x="718" dy="0">View Reports Library</tspan></text>
  <ellipse cx="892" cy="804" rx="78" ry="26"
         fill="#fffdf0" stroke="#d4a800" stroke-width="1.5"/>
<text x="892" y="797.5" text-anchor="middle" dominant-baseline="middle"
      font-size="10" font-family="Arial,sans-serif" fill="#2d3748"><tspan x="892" dy="0">Schedule Report</tspan><tspan x="892" dy="13">Delivery</tspan></text>
  <ellipse cx="718" cy="870" rx="78" ry="26"
         fill="#fffdf0" stroke="#d4a800" stroke-width="1.5"/>
<text x="718" y="870" text-anchor="middle" dominant-baseline="middle"
      font-size="10" font-family="Arial,sans-serif" fill="#2d3748"><tspan x="718" dy="0">View Delivery History</tspan></text>
  <ellipse cx="892" cy="870" rx="78" ry="26"
         fill="#fffdf0" stroke="#d4a800" stroke-width="1.5"/>
<text x="892" y="863.5" text-anchor="middle" dominant-baseline="middle"
      font-size="10" font-family="Arial,sans-serif" fill="#2d3748"><tspan x="892" dy="0">Send Report via Email</tspan><tspan x="892" dy="13">/ Telegram</tspan></text>
  <rect x="1036" y="50" width="200" height="256" rx="7" fill="#f8f9fa" stroke="#8896ab" stroke-width="1.5"/>
<rect x="1036" y="50" width="200" height="28" rx="7" fill="#8896ab" opacity="0.18"/>
<rect x="1036" y="74" width="200" height="4" fill="#8896ab" opacity="0.18"/>
<text x="1136" y="69" text-anchor="middle" font-size="11.5" font-weight="700"
      font-family="Arial,sans-serif" fill="#2d3748">Notifications &amp; Search</text>
  <ellipse cx="1136" cy="126" rx="78" ry="26"
         fill="#fffdf0" stroke="#d4a800" stroke-width="1.5"/>
<text x="1136" y="126" text-anchor="middle" dominant-baseline="middle"
      font-size="10" font-family="Arial,sans-serif" fill="#2d3748"><tspan x="1136" dy="0">View Notifications</tspan></text>
  <ellipse cx="1136" cy="192" rx="78" ry="26"
         fill="#fffdf0" stroke="#d4a800" stroke-width="1.5"/>
<text x="1136" y="192" text-anchor="middle" dominant-baseline="middle"
      font-size="10" font-family="Arial,sans-serif" fill="#2d3748"><tspan x="1136" dy="0">Global Search</tspan></text>
  <ellipse cx="1136" cy="258" rx="78" ry="26"
         fill="#fffdf0" stroke="#d4a800" stroke-width="1.5"/>
<text x="1136" y="258" text-anchor="middle" dominant-baseline="middle"
      font-size="10" font-family="Arial,sans-serif" fill="#2d3748"><tspan x="1136" dy="0">View My Activity</tspan></text>
  <rect x="1036" y="342" width="374" height="322" rx="7" fill="#f8f9fa" stroke="#8896ab" stroke-width="1.5"/>
<rect x="1036" y="342" width="374" height="28" rx="7" fill="#8896ab" opacity="0.18"/>
<rect x="1036" y="366" width="374" height="4" fill="#8896ab" opacity="0.18"/>
<text x="1223" y="361" text-anchor="middle" font-size="11.5" font-weight="700"
      font-family="Arial,sans-serif" fill="#2d3748">Administration</text>
  <ellipse cx="1136" cy="418" rx="78" ry="26"
         fill="#fffdf0" stroke="#d4a800" stroke-width="1.5"/>
<text x="1136" y="418" text-anchor="middle" dominant-baseline="middle"
      font-size="10" font-family="Arial,sans-serif" fill="#2d3748"><tspan x="1136" dy="0">Manage Users</tspan></text>
  <ellipse cx="1310" cy="418" rx="78" ry="26"
         fill="#fffdf0" stroke="#d4a800" stroke-width="1.5"/>
<text x="1310" y="411.5" text-anchor="middle" dominant-baseline="middle"
      font-size="10" font-family="Arial,sans-serif" fill="#2d3748"><tspan x="1310" dy="0">Assign Roles &amp;</tspan><tspan x="1310" dy="13">Permissions</tspan></text>
  <ellipse cx="1136" cy="484" rx="78" ry="26"
         fill="#fffdf0" stroke="#d4a800" stroke-width="1.5"/>
<text x="1136" y="484" text-anchor="middle" dominant-baseline="middle"
      font-size="10" font-family="Arial,sans-serif" fill="#2d3748"><tspan x="1136" dy="0">View Audit Logs</tspan></text>
  <ellipse cx="1310" cy="484" rx="78" ry="26"
         fill="#fffdf0" stroke="#d4a800" stroke-width="1.5"/>
<text x="1310" y="484" text-anchor="middle" dominant-baseline="middle"
      font-size="10" font-family="Arial,sans-serif" fill="#2d3748"><tspan x="1310" dy="0">Monitor System Health</tspan></text>
  <ellipse cx="1136" cy="550" rx="78" ry="26"
         fill="#fffdf0" stroke="#d4a800" stroke-width="1.5"/>
<text x="1136" y="543.5" text-anchor="middle" dominant-baseline="middle"
      font-size="10" font-family="Arial,sans-serif" fill="#2d3748"><tspan x="1136" dy="0">Configure Security &amp;</tspan><tspan x="1136" dy="13">Compliance</tspan></text>
  <ellipse cx="1310" cy="550" rx="78" ry="26"
         fill="#fffdf0" stroke="#d4a800" stroke-width="1.5"/>
<text x="1310" y="550" text-anchor="middle" dominant-baseline="middle"
      font-size="10" font-family="Arial,sans-serif" fill="#2d3748"><tspan x="1310" dy="0">Manage Data Retention</tspan></text>
  <ellipse cx="1136" cy="616" rx="78" ry="26"
         fill="#fffdf0" stroke="#d4a800" stroke-width="1.5"/>
<text x="1136" y="609.5" text-anchor="middle" dominant-baseline="middle"
      font-size="10" font-family="Arial,sans-serif" fill="#2d3748"><tspan x="1136" dy="0">Backup &amp; Restore</tspan><tspan x="1136" dy="13">Database</tspan></text>
  <ellipse cx="1310" cy="616" rx="78" ry="26"
         fill="#fffdf0" stroke="#d4a800" stroke-width="1.5"/>
<text x="1310" y="616" text-anchor="middle" dominant-baseline="middle"
      font-size="10" font-family="Arial,sans-serif" fill="#2d3748"><tspan x="1310" dy="0">Rotate Agent API Keys</tspan></text>
  <circle cx="50" cy="209" r="10" fill="#c9e6ff" stroke="#3b82f6" stroke-width="1.5"/>
<line x1="50" y1="219" x2="50" y2="243" stroke="#3b82f6" stroke-width="1.5"/>
<line x1="36" y1="228" x2="64" y2="228" stroke="#3b82f6" stroke-width="1.5"/>
<line x1="50" y1="243" x2="38" y2="261" stroke="#3b82f6" stroke-width="1.5"/>
<line x1="50" y1="243" x2="62" y2="261" stroke="#3b82f6" stroke-width="1.5"/>
<text x="50" y="267" text-anchor="middle" font-size="11"
      font-family="Arial,sans-serif" fill="#2d3748"><tspan x="50" dy="0">Viewer</tspan></text>
  <circle cx="50" cy="479" r="10" fill="#c6f0c2" stroke="#16a34a" stroke-width="1.5"/>
<line x1="50" y1="489" x2="50" y2="513" stroke="#16a34a" stroke-width="1.5"/>
<line x1="36" y1="498" x2="64" y2="498" stroke="#16a34a" stroke-width="1.5"/>
<line x1="50" y1="513" x2="38" y2="531" stroke="#16a34a" stroke-width="1.5"/>
<line x1="50" y1="513" x2="62" y2="531" stroke="#16a34a" stroke-width="1.5"/>
<text x="50" y="537" text-anchor="middle" font-size="11"
      font-family="Arial,sans-serif" fill="#2d3748"><tspan x="50" dy="0">Analyst</tspan></text>
  <circle cx="50" cy="749" r="10" fill="#ffc9c9" stroke="#dc2626" stroke-width="1.5"/>
<line x1="50" y1="759" x2="50" y2="783" stroke="#dc2626" stroke-width="1.5"/>
<line x1="36" y1="768" x2="64" y2="768" stroke="#dc2626" stroke-width="1.5"/>
<line x1="50" y1="783" x2="38" y2="801" stroke="#dc2626" stroke-width="1.5"/>
<line x1="50" y1="783" x2="62" y2="801" stroke="#dc2626" stroke-width="1.5"/>
<text x="50" y="807" text-anchor="middle" font-size="11"
      font-family="Arial,sans-serif" fill="#2d3748"><tspan x="50" dy="0">Admin</tspan></text>
  <circle cx="1480" cy="129" r="10" fill="#fff3c4" stroke="#ca8a04" stroke-width="1.5"/>
<line x1="1480" y1="139" x2="1480" y2="163" stroke="#ca8a04" stroke-width="1.5"/>
<line x1="1466" y1="148" x2="1494" y2="148" stroke="#ca8a04" stroke-width="1.5"/>
<line x1="1480" y1="163" x2="1468" y2="181" stroke="#ca8a04" stroke-width="1.5"/>
<line x1="1480" y1="163" x2="1492" y2="181" stroke="#ca8a04" stroke-width="1.5"/>
<text x="1480" y="187" text-anchor="middle" font-size="11"
      font-family="Arial,sans-serif" fill="#2d3748"><tspan x="1480" dy="0">Microsoft
Identity</tspan><tspan x="1480" dy="13">Provider</tspan></text>
  <circle cx="1480" cy="349" r="10" fill="#fff3c4" stroke="#ca8a04" stroke-width="1.5"/>
<line x1="1480" y1="359" x2="1480" y2="383" stroke="#ca8a04" stroke-width="1.5"/>
<line x1="1466" y1="368" x2="1494" y2="368" stroke="#ca8a04" stroke-width="1.5"/>
<line x1="1480" y1="383" x2="1468" y2="401" stroke="#ca8a04" stroke-width="1.5"/>
<line x1="1480" y1="383" x2="1492" y2="401" stroke="#ca8a04" stroke-width="1.5"/>
<text x="1480" y="407" text-anchor="middle" font-size="11"
      font-family="Arial,sans-serif" fill="#2d3748"><tspan x="1480" dy="0">Folder</tspan><tspan x="1480" dy="13">Sync
Agent</tspan></text>
  <circle cx="1480" cy="579" r="10" fill="#fff3c4" stroke="#ca8a04" stroke-width="1.5"/>
<line x1="1480" y1="589" x2="1480" y2="613" stroke="#ca8a04" stroke-width="1.5"/>
<line x1="1466" y1="598" x2="1494" y2="598" stroke="#ca8a04" stroke-width="1.5"/>
<line x1="1480" y1="613" x2="1468" y2="631" stroke="#ca8a04" stroke-width="1.5"/>
<line x1="1480" y1="613" x2="1492" y2="631" stroke="#ca8a04" stroke-width="1.5"/>
<text x="1480" y="637" text-anchor="middle" font-size="11"
      font-family="Arial,sans-serif" fill="#2d3748"><tspan x="1480" dy="0">Scheduler</tspan><tspan x="1480" dy="13">/
Time</tspan><tspan x="1480" dy="13">Trigger</tspan></text>
  <circle cx="1480" cy="789" r="10" fill="#fff3c4" stroke="#ca8a04" stroke-width="1.5"/>
<line x1="1480" y1="799" x2="1480" y2="823" stroke="#ca8a04" stroke-width="1.5"/>
<line x1="1466" y1="808" x2="1494" y2="808" stroke="#ca8a04" stroke-width="1.5"/>
<line x1="1480" y1="823" x2="1468" y2="841" stroke="#ca8a04" stroke-width="1.5"/>
<line x1="1480" y1="823" x2="1492" y2="841" stroke="#ca8a04" stroke-width="1.5"/>
<text x="1480" y="847" text-anchor="middle" font-size="11"
      font-family="Arial,sans-serif" fill="#2d3748"><tspan x="1480" dy="0">Email /</tspan><tspan x="1480" dy="13">Telegram
Delivery</tspan></text>
  <!-- edges -->
  <line x1="50" y1="499" x2="50" y2="229"
      stroke="#777777" stroke-width="1.2"  marker-end="url(#arrowBlock)"/>

  <line x1="50" y1="769" x2="50" y2="499"
      stroke="#777777" stroke-width="1.2"  marker-end="url(#arrowBlock)"/>

  <line x1="50" y1="229" x2="300" y2="126"
      stroke="#aaaaaa" stroke-width="1.2"  />

  <line x1="50" y1="229" x2="474" y2="126"
      stroke="#aaaaaa" stroke-width="1.2"  />

  <line x1="50" y1="229" x2="300" y2="192"
      stroke="#aaaaaa" stroke-width="1.2"  />

  <line x1="50" y1="229" x2="474" y2="192"
      stroke="#aaaaaa" stroke-width="1.2"  />

  <line x1="50" y1="229" x2="300" y2="258"
      stroke="#aaaaaa" stroke-width="1.2"  />

  <line x1="50" y1="229" x2="474" y2="258"
      stroke="#aaaaaa" stroke-width="1.2"  />

  <line x1="50" y1="229" x2="718" y2="126"
      stroke="#aaaaaa" stroke-width="1.2"  />

  <line x1="50" y1="229" x2="300" y2="418"
      stroke="#aaaaaa" stroke-width="1.2"  />

  <line x1="50" y1="229" x2="474" y2="418"
      stroke="#aaaaaa" stroke-width="1.2"  />

  <line x1="50" y1="229" x2="300" y2="644"
      stroke="#aaaaaa" stroke-width="1.2"  />

  <line x1="50" y1="229" x2="474" y2="644"
      stroke="#aaaaaa" stroke-width="1.2"  />

  <line x1="50" y1="229" x2="474" y2="710"
      stroke="#aaaaaa" stroke-width="1.2"  />

  <line x1="50" y1="229" x2="300" y2="776"
      stroke="#aaaaaa" stroke-width="1.2"  />

  <line x1="50" y1="229" x2="718" y2="512"
      stroke="#aaaaaa" stroke-width="1.2"  />

  <line x1="50" y1="229" x2="1136" y2="126"
      stroke="#aaaaaa" stroke-width="1.2"  />

  <line x1="50" y1="229" x2="1136" y2="192"
      stroke="#aaaaaa" stroke-width="1.2"  />

  <line x1="50" y1="229" x2="1136" y2="258"
      stroke="#aaaaaa" stroke-width="1.2"  />

  <line x1="50" y1="499" x2="718" y2="286"
      stroke="#aaaaaa" stroke-width="1.2"  />

  <line x1="50" y1="499" x2="892" y2="286"
      stroke="#aaaaaa" stroke-width="1.2"  />

  <line x1="50" y1="499" x2="718" y2="352"
      stroke="#aaaaaa" stroke-width="1.2"  />

  <line x1="50" y1="499" x2="892" y2="352"
      stroke="#aaaaaa" stroke-width="1.2"  />

  <line x1="50" y1="499" x2="300" y2="484"
      stroke="#aaaaaa" stroke-width="1.2"  />

  <line x1="50" y1="499" x2="300" y2="710"
      stroke="#aaaaaa" stroke-width="1.2"  />

  <line x1="50" y1="499" x2="474" y2="776"
      stroke="#aaaaaa" stroke-width="1.2"  />

  <line x1="50" y1="499" x2="300" y2="842"
      stroke="#aaaaaa" stroke-width="1.2"  />

  <line x1="50" y1="499" x2="892" y2="512"
      stroke="#aaaaaa" stroke-width="1.2"  />

  <line x1="50" y1="499" x2="718" y2="578"
      stroke="#aaaaaa" stroke-width="1.2"  />

  <line x1="50" y1="499" x2="718" y2="738"
      stroke="#aaaaaa" stroke-width="1.2"  />

  <line x1="50" y1="499" x2="892" y2="738"
      stroke="#aaaaaa" stroke-width="1.2"  />

  <line x1="50" y1="499" x2="718" y2="804"
      stroke="#aaaaaa" stroke-width="1.2"  />

  <line x1="50" y1="499" x2="892" y2="804"
      stroke="#aaaaaa" stroke-width="1.2"  />

  <line x1="50" y1="499" x2="718" y2="870"
      stroke="#aaaaaa" stroke-width="1.2"  />

  <line x1="50" y1="769" x2="1136" y2="418"
      stroke="#aaaaaa" stroke-width="1.2"  />

  <line x1="50" y1="769" x2="1310" y2="418"
      stroke="#aaaaaa" stroke-width="1.2"  />

  <line x1="50" y1="769" x2="1136" y2="484"
      stroke="#aaaaaa" stroke-width="1.2"  />

  <line x1="50" y1="769" x2="1310" y2="484"
      stroke="#aaaaaa" stroke-width="1.2"  />

  <line x1="50" y1="769" x2="1136" y2="550"
      stroke="#aaaaaa" stroke-width="1.2"  />

  <line x1="50" y1="769" x2="1310" y2="550"
      stroke="#aaaaaa" stroke-width="1.2"  />

  <line x1="50" y1="769" x2="1136" y2="616"
      stroke="#aaaaaa" stroke-width="1.2"  />

  <line x1="50" y1="769" x2="1310" y2="616"
      stroke="#aaaaaa" stroke-width="1.2"  />

  <line x1="1480" y1="149" x2="474" y2="126"
      stroke="#aaaaaa" stroke-width="1.2"  />

  <line x1="1480" y1="369" x2="892" y2="352"
      stroke="#aaaaaa" stroke-width="1.2"  />

  <line x1="1480" y1="599" x2="892" y2="804"
      stroke="#aaaaaa" stroke-width="1.2"  />

  <line x1="1480" y1="599" x2="892" y2="870"
      stroke="#aaaaaa" stroke-width="1.2"  />

  <line x1="1480" y1="809" x2="892" y2="870"
      stroke="#aaaaaa" stroke-width="1.2"  />

  <line x1="474" y1="126" x2="300" y2="192"
      stroke="#777777" stroke-width="1.2" stroke-dasharray="6 4" marker-end="url(#arrowOpen)"/>
<text x="387" y="154" text-anchor="middle" font-size="9" font-style="italic" font-family="Arial,sans-serif" fill="#666">&lt;&lt;include&gt;&gt;</text>
  <line x1="300" y1="126" x2="300" y2="192"
      stroke="#777777" stroke-width="1.2" stroke-dasharray="6 4" marker-end="url(#arrowOpen)"/>
<text x="300" y="154" text-anchor="middle" font-size="9" font-style="italic" font-family="Arial,sans-serif" fill="#666">&lt;&lt;extend&gt;&gt;</text>
  <line x1="718" y1="286" x2="474" y2="644"
      stroke="#777777" stroke-width="1.2" stroke-dasharray="6 4" marker-end="url(#arrowOpen)"/>
<text x="596" y="460" text-anchor="middle" font-size="9" font-style="italic" font-family="Arial,sans-serif" fill="#666">&lt;&lt;include&gt;&gt;</text>
  <line x1="718" y1="286" x2="300" y2="710"
      stroke="#777777" stroke-width="1.2" stroke-dasharray="6 4" marker-end="url(#arrowOpen)"/>
<text x="509" y="493" text-anchor="middle" font-size="9" font-style="italic" font-family="Arial,sans-serif" fill="#666">&lt;&lt;include&gt;&gt;</text>
  <line x1="892" y1="804" x2="892" y2="870"
      stroke="#777777" stroke-width="1.2" stroke-dasharray="6 4" marker-end="url(#arrowOpen)"/>
<text x="892" y="832" text-anchor="middle" font-size="9" font-style="italic" font-family="Arial,sans-serif" fill="#666">&lt;&lt;include&gt;&gt;</text>
  <line x1="892" y1="738" x2="718" y2="738"
      stroke="#777777" stroke-width="1.2" stroke-dasharray="6 4" marker-end="url(#arrowOpen)"/>
<text x="805" y="733" text-anchor="middle" font-size="9" font-style="italic" font-family="Arial,sans-serif" fill="#666">&lt;&lt;extend&gt;&gt;</text>
</svg>
